<?xml version="1.0" encoding="utf-8"?>
<!-- Generator: Adobe Illustrator 24.1.1, SVG Export Plug-In . SVG Version: 6.00 Build 0)  -->
<svg version="1.1" id="Layer_1" xmlns="http://www.w3.org/2000/svg" xmlns:xlink="http://www.w3.org/1999/xlink" x="0px" y="0px"
	 viewBox="0 0 160 754" style="enable-background:new 0 0 160 754;" xml:space="preserve">
<style type="text/css">
	.st0{opacity:0.8;}
	.st1{fill:none;stroke:#ECECF8;stroke-width:3;}
</style>
<g id="Mask_Group_7" transform="translate(-978.917 682.948)">
	<g>
		<g id="Repeat_Grid_1" transform="translate(375.496 6.063)" class="st0">
			<g transform="translate(64.5 -691)">
				<line id="Line_14-2" class="st1" x1="541.9" y1="8" x2="538.9" y2="8"/>
				<line id="Line_14-3" class="st1" x1="548.9" y1="26.5" x2="538.9" y2="26.5"/>
				<line id="Line_14-4" class="st1" x1="556.9" y1="44.9" x2="538.9" y2="44.9"/>
				<line id="Line_14-5" class="st1" x1="564.9" y1="63.4" x2="538.9" y2="63.4"/>
				<line id="Line_14-6" class="st1" x1="572.9" y1="81.9" x2="538.9" y2="81.9"/>
				<line id="Line_14-7" class="st1" x1="579.9" y1="100.4" x2="538.9" y2="100.4"/>
				<line id="Line_14-8" class="st1" x1="587.9" y1="118.9" x2="538.9" y2="118.9"/>
				<line id="Line_14-9" class="st1" x1="595.9" y1="137.4" x2="538.9" y2="137.4"/>
				<line id="Line_14-10" class="st1" x1="603.9" y1="155.8" x2="538.9" y2="155.8"/>
				<line id="Line_14-11" class="st1" x1="611.9" y1="174.3" x2="538.9" y2="174.3"/>
				<line id="Line_14-12" class="st1" x1="619.9" y1="192.8" x2="538.9" y2="192.8"/>
				<line id="Line_14-13" class="st1" x1="626.9" y1="211.3" x2="538.9" y2="211.3"/>
				<line id="Line_14-14" class="st1" x1="634.9" y1="229.8" x2="538.9" y2="229.8"/>
				<line id="Line_14-15" class="st1" x1="642.9" y1="248.2" x2="538.9" y2="248.2"/>
				<line id="Line_14-16" class="st1" x1="650.9" y1="266.7" x2="538.9" y2="266.7"/>
				<line id="Line_14-17" class="st1" x1="658.9" y1="285.2" x2="538.9" y2="285.2"/>
				<line id="Line_14-18" class="st1" x1="666.9" y1="303.7" x2="538.9" y2="303.7"/>
				<line id="Line_14-19" class="st1" x1="673.9" y1="322.2" x2="538.9" y2="322.2"/>
				<line id="Line_14-20" class="st1" x1="681.9" y1="340.6" x2="538.9" y2="340.6"/>
				<line id="Line_14-21" class="st1" x1="689.9" y1="359.1" x2="538.9" y2="359.1"/>
				<line id="Line_14-22" class="st1" x1="697.9" y1="377.6" x2="538.9" y2="377.6"/>
				<line id="Line_14-23" class="st1" x1="691.9" y1="396.1" x2="538.9" y2="396.1"/>
				<line id="Line_14-24" class="st1" x1="683.9" y1="414.6" x2="538.9" y2="414.6"/>
				<line id="Line_14-25" class="st1" x1="676.9" y1="433" x2="538.9" y2="433"/>
				<line id="Line_14-26" class="st1" x1="668.9" y1="451.5" x2="538.9" y2="451.5"/>
				<line id="Line_14-27" class="st1" x1="660.9" y1="470" x2="538.9" y2="470"/>
				<line id="Line_14-28" class="st1" x1="652.9" y1="488.5" x2="538.9" y2="488.5"/>
				<line id="Line_14-29" class="st1" x1="645.9" y1="507" x2="538.9" y2="507"/>
				<line id="Line_14-30" class="st1" x1="637.9" y1="525.4" x2="538.9" y2="525.4"/>
				<line id="Line_14-31" class="st1" x1="629.9" y1="543.9" x2="538.9" y2="543.9"/>
				<line id="Line_14-32" class="st1" x1="622.9" y1="562.4" x2="538.9" y2="562.4"/>
				<line id="Line_14-33" class="st1" x1="614.9" y1="580.9" x2="538.9" y2="580.9"/>
				<line id="Line_14-34" class="st1" x1="606.9" y1="599.4" x2="538.9" y2="599.4"/>
				<line id="Line_14-35" class="st1" x1="599.9" y1="617.8" x2="538.9" y2="617.8"/>
				<line id="Line_14-36" class="st1" x1="591.9" y1="636.3" x2="538.9" y2="636.3"/>
				<line id="Line_14-37" class="st1" x1="583.9" y1="654.8" x2="538.9" y2="654.8"/>
				<line id="Line_14-38" class="st1" x1="575.9" y1="673.3" x2="538.9" y2="673.3"/>
				<line id="Line_14-39" class="st1" x1="568.9" y1="691.8" x2="538.9" y2="691.8"/>
				<line id="Line_14-40" class="st1" x1="560.9" y1="710.2" x2="538.9" y2="710.2"/>
				<line id="Line_14-41" class="st1" x1="553.9" y1="728.7" x2="538.9" y2="728.7"/>
				<line id="Line_14-41_1_" class="st1" x1="545.9" y1="746.7" x2="538.9" y2="746.7"/>
			</g>
		</g>
	</g>
</g>
</svg>
