<svg width="42" height="43" viewBox="0 0 42 43" fill="none" xmlns="http://www.w3.org/2000/svg">
<path d="M14.048 34.6235C14.048 34.8014 13.8532 34.9436 13.6077 34.9436C13.3282 34.9703 13.1335 34.828 13.1335 34.6235C13.1335 34.4457 13.3282 34.3034 13.5738 34.3034C13.8278 34.2768 14.048 34.419 14.048 34.6235ZM11.4145 34.2234C11.3552 34.4012 11.5246 34.6058 11.7786 34.6591C11.9988 34.748 12.2528 34.6591 12.3036 34.4813C12.3544 34.3034 12.1935 34.0989 11.9395 34.0189C11.7194 33.9567 11.4738 34.0456 11.4145 34.2234ZM15.1573 34.0723C14.9117 34.1345 14.7423 34.3034 14.7677 34.5079C14.7931 34.6858 15.0133 34.8014 15.2673 34.7391C15.5129 34.6769 15.6823 34.5079 15.6569 34.3301C15.6315 34.1612 15.4028 34.0456 15.1573 34.0723ZM20.729 0C8.98427 0 0 9.36276 0 21.6953C0 31.556 5.91048 39.994 14.3528 42.9638C15.4367 43.1683 15.8177 42.4658 15.8177 41.8879C15.8177 41.3366 15.7923 38.2957 15.7923 36.4285C15.7923 36.4285 9.86492 37.7622 8.62016 33.7788C8.62016 33.7788 7.65484 31.1914 6.26613 30.5245C6.26613 30.5245 4.32702 29.1286 6.40161 29.1553C6.40161 29.1553 8.51008 29.3331 9.67016 31.4493C11.5246 34.8814 14.6323 33.8944 15.8431 33.3076C16.0379 31.885 16.5883 30.898 17.198 30.3112C12.4645 29.7599 7.68871 29.0397 7.68871 20.486C7.68871 18.0409 8.33226 16.8138 9.6871 15.2489C9.46694 14.671 8.74718 12.2881 9.90726 9.2116C11.677 8.63365 15.75 11.6123 15.75 11.6123C17.4435 11.1144 19.2641 10.8565 21.0677 10.8565C22.8714 10.8565 24.6919 11.1144 26.3855 11.6123C26.3855 11.6123 30.4585 8.62476 32.2282 9.2116C33.3883 12.297 32.6685 14.671 32.4484 15.2489C33.8032 16.8227 34.6331 18.0498 34.6331 20.486C34.6331 29.0663 29.6456 29.751 24.9121 30.3112C25.6911 31.0136 26.3516 32.3473 26.3516 34.4368C26.3516 37.4333 26.3262 41.141 26.3262 41.8701C26.3262 42.4481 26.7157 43.1505 27.7911 42.946C36.2589 39.994 42 31.556 42 21.6953C42 9.36276 32.4738 0 20.729 0ZM8.23065 30.6668C8.12056 30.7557 8.14597 30.9602 8.28992 31.1292C8.4254 31.2714 8.62016 31.3337 8.73024 31.2181C8.84032 31.1292 8.81492 30.9247 8.67097 30.7557C8.53548 30.6135 8.34073 30.5512 8.23065 30.6668ZM7.31613 29.9466C7.25686 30.0622 7.34153 30.2045 7.51089 30.2934C7.64637 30.3823 7.81573 30.3556 7.875 30.2311C7.93427 30.1155 7.8496 29.9733 7.68024 29.8844C7.51089 29.831 7.3754 29.8577 7.31613 29.9466ZM10.0597 33.112C9.92419 33.2276 9.975 33.4943 10.1698 33.6633C10.3645 33.8678 10.6101 33.8944 10.7202 33.7522C10.8302 33.6366 10.7794 33.3698 10.6101 33.2009C10.4238 32.9964 10.1698 32.9697 10.0597 33.112ZM9.09435 31.8049C8.95887 31.8938 8.95887 32.125 9.09435 32.3295C9.22984 32.534 9.45847 32.6229 9.56855 32.534C9.70403 32.4184 9.70403 32.1873 9.56855 31.9828C9.45 31.7783 9.22984 31.6893 9.09435 31.8049Z" fill="#575A89"/>
</svg>
