<svg width="36" height="39" viewBox="0 0 36 39" fill="none" xmlns="http://www.w3.org/2000/svg">
<path d="M15.7324 9.95947L10.8717 1.18371C10.6718 0.822702 10.3891 0.523924 10.051 0.316482C9.71285 0.109039 9.33089 5.16846e-06 8.94232 0H1.12706C0.216512 0 -0.316458 1.10982 0.205262 1.91801L8.02896 14.0263C10.1187 11.911 12.7765 10.4592 15.7324 9.95947ZM34.8729 0H27.0577C26.2674 0 25.5347 0.449414 25.1283 1.18371L20.2676 9.95947C23.2235 10.4592 25.8814 11.911 27.971 14.0255L35.7947 1.91801C36.3165 1.10982 35.7835 0 34.8729 0ZM18 12.1875C11.1656 12.1875 5.62496 18.1898 5.62496 25.5938C5.62496 32.9977 11.1656 39 18 39C24.8344 39 30.375 32.9977 30.375 25.5938C30.375 18.1898 24.8344 12.1875 18 12.1875ZM24.5053 24.1663L21.8384 26.9816L22.4691 30.9593C22.5816 31.6723 21.8883 32.2169 21.2984 31.8802L18 30.0026L14.7023 31.8802C14.1117 32.2192 13.4191 31.6715 13.5316 30.9593L14.1623 26.9816L11.4954 24.1663C11.0158 23.6605 11.2809 22.7777 11.9419 22.6741L15.6284 22.0921L17.2758 18.4724C17.4241 18.1464 17.711 17.9857 17.9986 17.9857C18.2876 17.9857 18.5766 18.1487 18.7249 18.4724L20.3723 22.0921L24.0588 22.6741C24.7198 22.7777 24.9849 23.6605 24.5053 24.1663Z" fill="#575A89"/>
</svg>
