<svg width="1440" height="1095" viewBox="0 0 1440 1095" fill="none" xmlns="http://www.w3.org/2000/svg">
<path fill-rule="evenodd" clip-rule="evenodd" d="M0 1055.02L80.4 1041.82C159.6 1028.61 320.4 1002.21 480 1008.81C639.6 1015.41 800.4 1055.02 960 1074.82C1119.6 1094.63 1280.4 1094.63 1359.6 1094.63H1440V956H1359.6C1280.4 956 1119.6 956 960 956C800.4 956 639.6 956 480 956C320.4 956 159.6 956 80.4 956H0L0 1055.02Z" fill="#575A89"/>
<rect y="134.005" width="1440" height="840.995" fill="#575A89"/>
<path fill-rule="evenodd" clip-rule="evenodd" d="M1440 39.6073L1359.6 52.8098C1280.4 66.0122 1119.6 92.4171 960 85.8159C800.4 79.2146 639.6 39.6073 480 19.8037C320.4 1.49383e-05 159.6 1.66893e-05 80.3999 1.66893e-05H0V138.626H80.3999C159.6 138.626 320.4 138.626 480 138.626C639.6 138.626 800.4 138.626 960 138.626C1119.6 138.626 1280.4 138.626 1359.6 138.626H1440V39.6073Z" fill="#575A89"/>
</svg>
